<?xml version="1.0" encoding="UTF-8"?>
<svg id="Layer_1" xmlns="http://www.w3.org/2000/svg" version="1.1" xmlns:xlink="http://www.w3.org/1999/xlink" viewBox="0 0 950.5 262.73">
  <!-- Generator: Adobe Illustrator 30.0.0, SVG Export Plug-In . SVG Version: 2.1.1 Build 123)  -->
  <defs>
    <style>
      .st0 {
        fill: url(#linear-gradient2);
      }

      .st1 {
        fill: url(#linear-gradient36);
      }

      .st2 {
        fill: url(#linear-gradient39);
      }

      .st3 {
        fill: url(#linear-gradient34);
      }

      .st4 {
        fill: url(#linear-gradient33);
      }

      .st5 {
        fill: url(#linear-gradient10);
      }

      .st6 {
        fill: #e88780;
      }

      .st7 {
        fill: url(#linear-gradient32);
      }

      .st8 {
        fill: #bc3931;
      }

      .st9 {
        fill: url(#linear-gradient21);
      }

      .st10 {
        fill: url(#linear-gradient37);
      }

      .st11 {
        fill: url(#linear-gradient27);
      }

      .st12 {
        fill: url(#linear-gradient35);
      }

      .st13 {
        fill: #fff;
      }

      .st14 {
        fill: url(#linear-gradient26);
      }

      .st15 {
        fill: url(#linear-gradient1);
      }

      .st16 {
        fill: url(#linear-gradient9);
      }

      .st17 {
        fill: url(#linear-gradient18);
      }

      .st18 {
        fill: url(#linear-gradient23);
      }

      .st19 {
        fill: url(#linear-gradient8);
      }

      .st20 {
        fill: url(#linear-gradient11);
      }

      .st21 {
        fill: url(#linear-gradient16);
      }

      .st22 {
        fill: url(#linear-gradient24);
      }

      .st23 {
        fill: url(#linear-gradient30);
      }

      .st24 {
        fill: url(#linear-gradient22);
      }

      .st25 {
        fill: url(#linear-gradient29);
      }

      .st26 {
        fill: url(#linear-gradient19);
      }

      .st27 {
        fill: url(#linear-gradient12);
      }

      .st28 {
        fill: url(#linear-gradient28);
      }

      .st29 {
        fill: url(#linear-gradient40);
      }

      .st30 {
        fill: url(#linear-gradient7);
      }

      .st31 {
        fill: url(#linear-gradient20);
      }

      .st32 {
        fill: url(#linear-gradient4);
      }

      .st33 {
        fill: url(#linear-gradient31);
      }

      .st34 {
        fill: url(#linear-gradient14);
      }

      .st35 {
        fill: url(#linear-gradient5);
      }

      .st36 {
        fill: url(#linear-gradient3);
      }

      .st37 {
        fill: url(#linear-gradient38);
      }

      .st38 {
        fill: url(#linear-gradient25);
      }

      .st39 {
        fill: url(#linear-gradient15);
      }

      .st40 {
        fill: url(#linear-gradient17);
      }

      .st41 {
        fill: url(#linear-gradient6);
      }

      .st42 {
        fill: url(#linear-gradient13);
      }

      .st43 {
        fill: url(#linear-gradient);
      }

      .st44 {
        fill: url(#linear-gradient41);
      }
    </style>
    <linearGradient id="linear-gradient" x1="89.2" y1="205.21" x2="110.51" y2="205.21" gradientTransform="translate(0 264) scale(1 -1)" gradientUnits="userSpaceOnUse">
      <stop offset="0" stop-color="#00a8e8"/>
      <stop offset=".71" stop-color="#000"/>
    </linearGradient>
    <linearGradient id="linear-gradient1" x1="109.36" y1="204.98" x2="117.13" y2="204.98" gradientTransform="translate(0 264) scale(1 -1)" gradientUnits="userSpaceOnUse">
      <stop offset="0" stop-color="#00a8e8"/>
      <stop offset=".71" stop-color="#000"/>
    </linearGradient>
    <linearGradient id="linear-gradient2" x1="88.91" y1="192.48" x2="124.3" y2="192.48" gradientTransform="translate(0 264) scale(1 -1)" gradientUnits="userSpaceOnUse">
      <stop offset="0" stop-color="#00a8e8"/>
      <stop offset=".71" stop-color="#000"/>
    </linearGradient>
    <linearGradient id="linear-gradient3" x1="88.91" y1="177.65" x2="109.31" y2="177.65" gradientTransform="translate(0 264) scale(1 -1)" gradientUnits="userSpaceOnUse">
      <stop offset="0" stop-color="#00a8e8"/>
      <stop offset=".71" stop-color="#000"/>
    </linearGradient>
    <linearGradient id="linear-gradient4" x1="89.2" y1="160.93" x2="126.72" y2="160.93" gradientTransform="translate(0 264) scale(1 -1)" gradientUnits="userSpaceOnUse">
      <stop offset="0" stop-color="#00a8e8"/>
      <stop offset=".71" stop-color="#000"/>
    </linearGradient>
    <linearGradient id="linear-gradient5" x1="89.2" y1="150.15" x2="125.92" y2="150.15" gradientTransform="translate(0 264) scale(1 -1)" gradientUnits="userSpaceOnUse">
      <stop offset="0" stop-color="#00a8e8"/>
      <stop offset=".71" stop-color="#000"/>
    </linearGradient>
    <linearGradient id="linear-gradient6" x1="88.91" y1="148.93" x2="113.74" y2="148.93" gradientTransform="translate(0 264) scale(1 -1)" gradientUnits="userSpaceOnUse">
      <stop offset="0" stop-color="#00a8e8"/>
      <stop offset=".71" stop-color="#000"/>
    </linearGradient>
    <linearGradient id="linear-gradient7" x1="88.9" y1="144.74" x2="107.55" y2="144.74" gradientTransform="translate(0 264) scale(1 -1)" gradientUnits="userSpaceOnUse">
      <stop offset="0" stop-color="#00a8e8"/>
      <stop offset=".71" stop-color="#000"/>
    </linearGradient>
    <linearGradient id="linear-gradient8" x1="97.02" y1="127.15" x2="120.52" y2="127.15" gradientTransform="translate(0 264) scale(1 -1)" gradientUnits="userSpaceOnUse">
      <stop offset="0" stop-color="#00a8e8"/>
      <stop offset=".71" stop-color="#000"/>
    </linearGradient>
    <linearGradient id="linear-gradient9" x1="132.5" y1="162.37" x2="151.02" y2="162.37" gradientTransform="translate(0 264) scale(1 -1)" gradientUnits="userSpaceOnUse">
      <stop offset="0" stop-color="#00a8e8"/>
      <stop offset=".71" stop-color="#000"/>
    </linearGradient>
    <linearGradient id="linear-gradient10" x1="119.95" y1="192.92" x2="129.68" y2="192.92" gradientTransform="translate(0 264) scale(1 -1)" gradientUnits="userSpaceOnUse">
      <stop offset="0" stop-color="#00a8e8"/>
      <stop offset=".71" stop-color="#000"/>
    </linearGradient>
    <linearGradient id="linear-gradient11" x1="112.18" y1="181.95" x2="124.98" y2="181.95" gradientTransform="translate(0 264) scale(1 -1)" gradientUnits="userSpaceOnUse">
      <stop offset="0" stop-color="#00a8e8"/>
      <stop offset=".71" stop-color="#000"/>
    </linearGradient>
    <linearGradient id="linear-gradient12" x1="131.39" y1="196.7" x2="144.2" y2="196.7" gradientTransform="translate(0 264) scale(1 -1)" gradientUnits="userSpaceOnUse">
      <stop offset="0" stop-color="#00a8e8"/>
      <stop offset=".71" stop-color="#000"/>
    </linearGradient>
    <linearGradient id="linear-gradient13" x1="119.56" y1="211.47" x2="132.37" y2="211.47" gradientTransform="translate(0 264) scale(1 -1)" gradientUnits="userSpaceOnUse">
      <stop offset="0" stop-color="#00a8e8"/>
      <stop offset=".71" stop-color="#000"/>
    </linearGradient>
    <linearGradient id="linear-gradient14" x1="127.49" y1="149.61" x2="140.29" y2="149.61" gradientTransform="translate(0 264) scale(1 -1)" gradientUnits="userSpaceOnUse">
      <stop offset="0" stop-color="#00a8e8"/>
      <stop offset=".71" stop-color="#000"/>
    </linearGradient>
    <linearGradient id="linear-gradient15" x1="119.59" y1="130" x2="132.39" y2="130" gradientTransform="translate(0 264) scale(1 -1)" gradientUnits="userSpaceOnUse">
      <stop offset="0" stop-color="#00a8e8"/>
      <stop offset=".71" stop-color="#000"/>
    </linearGradient>
    <linearGradient id="linear-gradient16" x1="104.65" y1="132.1" x2="117.46" y2="132.1" gradientTransform="translate(0 264) scale(1 -1)" gradientUnits="userSpaceOnUse">
      <stop offset="0" stop-color="#00a8e8"/>
      <stop offset=".71" stop-color="#000"/>
    </linearGradient>
    <linearGradient id="linear-gradient17" x1="88.9" y1="169.04" x2="146.26" y2="169.04" gradientTransform="translate(0 264) scale(1 -1)" gradientUnits="userSpaceOnUse">
      <stop offset="0" stop-color="#00a8e8"/>
      <stop offset=".71" stop-color="#000"/>
    </linearGradient>
    <linearGradient id="linear-gradient18" x1="103.32" y1="120.43" x2="111.1" y2="120.43" gradientTransform="translate(0 264) scale(1 -1)" gradientUnits="userSpaceOnUse">
      <stop offset="0" stop-color="#00a8e8"/>
      <stop offset=".71" stop-color="#000"/>
    </linearGradient>
    <linearGradient id="linear-gradient19" x1="127.19" y1="184.14" x2="141.03" y2="184.14" gradientTransform="translate(0 264) scale(1 -1)" gradientUnits="userSpaceOnUse">
      <stop offset="0" stop-color="#00a8e8"/>
      <stop offset=".71" stop-color="#000"/>
    </linearGradient>
    <linearGradient id="linear-gradient20" x1="96.44" y1="211.38" x2="120.08" y2="211.38" gradientTransform="translate(0 264) scale(1 -1)" gradientUnits="userSpaceOnUse">
      <stop offset="0" stop-color="#00a8e8"/>
      <stop offset=".71" stop-color="#000"/>
    </linearGradient>
    <linearGradient id="linear-gradient21" x1="88.91" y1="205.21" x2="151.02" y2="205.21" gradientTransform="translate(0 264) scale(1 -1)" gradientUnits="userSpaceOnUse">
      <stop offset="0" stop-color="#00a8e8"/>
      <stop offset=".39" stop-color="#3a5ba0"/>
    </linearGradient>
    <linearGradient id="linear-gradient22" x1="88.91" y1="204.98" x2="151.02" y2="204.98" gradientTransform="translate(0 264) scale(1 -1)" gradientUnits="userSpaceOnUse">
      <stop offset="0" stop-color="#00a8e8"/>
      <stop offset=".39" stop-color="#3a5ba0"/>
    </linearGradient>
    <linearGradient id="linear-gradient23" x1="88.91" y1="192.48" x2="151.02" y2="192.48" gradientTransform="translate(0 264) scale(1 -1)" gradientUnits="userSpaceOnUse">
      <stop offset="0" stop-color="#00a8e8"/>
      <stop offset=".39" stop-color="#3a5ba0"/>
    </linearGradient>
    <linearGradient id="linear-gradient24" x1="88.91" y1="177.65" x2="151.02" y2="177.65" gradientTransform="translate(0 264) scale(1 -1)" gradientUnits="userSpaceOnUse">
      <stop offset="0" stop-color="#00a8e8"/>
      <stop offset=".39" stop-color="#3a5ba0"/>
    </linearGradient>
    <linearGradient id="linear-gradient25" x1="88.91" y1="160.93" x2="151.02" y2="160.93" gradientTransform="translate(0 264) scale(1 -1)" gradientUnits="userSpaceOnUse">
      <stop offset="0" stop-color="#00a8e8"/>
      <stop offset=".39" stop-color="#3a5ba0"/>
    </linearGradient>
    <linearGradient id="linear-gradient26" x1="88.91" y1="150.15" x2="151.02" y2="150.15" gradientTransform="translate(0 264) scale(1 -1)" gradientUnits="userSpaceOnUse">
      <stop offset="0" stop-color="#00a8e8"/>
      <stop offset=".39" stop-color="#3a5ba0"/>
    </linearGradient>
    <linearGradient id="linear-gradient27" x1="88.91" y1="148.93" x2="151.02" y2="148.93" gradientTransform="translate(0 264) scale(1 -1)" gradientUnits="userSpaceOnUse">
      <stop offset="0" stop-color="#00a8e8"/>
      <stop offset=".39" stop-color="#3a5ba0"/>
    </linearGradient>
    <linearGradient id="linear-gradient28" x1="88.9" y1="144.74" x2="151.01" y2="144.74" gradientTransform="translate(0 264) scale(1 -1)" gradientUnits="userSpaceOnUse">
      <stop offset="0" stop-color="#00a8e8"/>
      <stop offset=".39" stop-color="#3a5ba0"/>
    </linearGradient>
    <linearGradient id="linear-gradient29" x1="88.91" y1="127.15" x2="151.02" y2="127.15" gradientTransform="translate(0 264) scale(1 -1)" gradientUnits="userSpaceOnUse">
      <stop offset="0" stop-color="#00a8e8"/>
      <stop offset=".39" stop-color="#3a5ba0"/>
    </linearGradient>
    <linearGradient id="linear-gradient30" x1="88.91" y1="162.37" x2="151.02" y2="162.37" gradientTransform="translate(0 264) scale(1 -1)" gradientUnits="userSpaceOnUse">
      <stop offset="0" stop-color="#00a8e8"/>
      <stop offset=".39" stop-color="#3a5ba0"/>
    </linearGradient>
    <linearGradient id="linear-gradient31" x1="88.91" y1="192.92" x2="151.02" y2="192.92" gradientTransform="translate(0 264) scale(1 -1)" gradientUnits="userSpaceOnUse">
      <stop offset="0" stop-color="#00a8e8"/>
      <stop offset=".39" stop-color="#3a5ba0"/>
    </linearGradient>
    <linearGradient id="linear-gradient32" x1="88.91" y1="181.95" x2="151.02" y2="181.95" gradientTransform="translate(0 264) scale(1 -1)" gradientUnits="userSpaceOnUse">
      <stop offset="0" stop-color="#00a8e8"/>
      <stop offset=".39" stop-color="#3a5ba0"/>
    </linearGradient>
    <linearGradient id="linear-gradient33" x1="88.91" y1="196.7" x2="151.02" y2="196.7" gradientTransform="translate(0 264) scale(1 -1)" gradientUnits="userSpaceOnUse">
      <stop offset="0" stop-color="#00a8e8"/>
      <stop offset=".39" stop-color="#3a5ba0"/>
    </linearGradient>
    <linearGradient id="linear-gradient34" x1="88.91" y1="211.47" x2="151.02" y2="211.47" gradientTransform="translate(0 264) scale(1 -1)" gradientUnits="userSpaceOnUse">
      <stop offset="0" stop-color="#00a8e8"/>
      <stop offset=".39" stop-color="#3a5ba0"/>
    </linearGradient>
    <linearGradient id="linear-gradient35" x1="88.91" y1="149.61" x2="151.02" y2="149.61" gradientTransform="translate(0 264) scale(1 -1)" gradientUnits="userSpaceOnUse">
      <stop offset="0" stop-color="#00a8e8"/>
      <stop offset=".39" stop-color="#3a5ba0"/>
    </linearGradient>
    <linearGradient id="linear-gradient36" x1="88.91" y1="130" x2="151.02" y2="130" gradientTransform="translate(0 264) scale(1 -1)" gradientUnits="userSpaceOnUse">
      <stop offset="0" stop-color="#00a8e8"/>
      <stop offset=".39" stop-color="#3a5ba0"/>
    </linearGradient>
    <linearGradient id="linear-gradient37" x1="88.91" y1="132.1" x2="151.02" y2="132.1" gradientTransform="translate(0 264) scale(1 -1)" gradientUnits="userSpaceOnUse">
      <stop offset="0" stop-color="#00a8e8"/>
      <stop offset=".39" stop-color="#3a5ba0"/>
    </linearGradient>
    <linearGradient id="linear-gradient38" x1="88.9" y1="169.04" x2="151.01" y2="169.04" gradientTransform="translate(0 264) scale(1 -1)" gradientUnits="userSpaceOnUse">
      <stop offset="0" stop-color="#00a8e8"/>
      <stop offset=".39" stop-color="#3a5ba0"/>
    </linearGradient>
    <linearGradient id="linear-gradient39" x1="88.91" y1="120.43" x2="151.02" y2="120.43" gradientTransform="translate(0 264) scale(1 -1)" gradientUnits="userSpaceOnUse">
      <stop offset="0" stop-color="#00a8e8"/>
      <stop offset=".39" stop-color="#3a5ba0"/>
    </linearGradient>
    <linearGradient id="linear-gradient40" x1="88.91" y1="184.14" x2="151.02" y2="184.14" gradientTransform="translate(0 264) scale(1 -1)" gradientUnits="userSpaceOnUse">
      <stop offset="0" stop-color="#00a8e8"/>
      <stop offset=".39" stop-color="#3a5ba0"/>
    </linearGradient>
    <linearGradient id="linear-gradient41" x1="88.91" y1="211.38" x2="151.02" y2="211.38" gradientTransform="translate(0 264) scale(1 -1)" gradientUnits="userSpaceOnUse">
      <stop offset="0" stop-color="#00a8e8"/>
      <stop offset=".39" stop-color="#3a5ba0"/>
    </linearGradient>
  </defs>
  <g>
    <g>
      <g>
        <path class="st13" d="M106.72,230.95h-4.77v-36.8h-13v-4.24h30.76v4.24h-13v36.8h0Z"/>
        <path class="st13" d="M151.98,230.95v-19.9c0-2.51-.57-4.38-1.71-5.61-1.14-1.24-2.93-1.85-5.36-1.85-3.24,0-5.6.88-7.09,2.64-1.49,1.76-2.23,4.64-2.23,8.65v16.08h-4.66v-43.67h4.66v13.22c0,1.59-.07,2.91-.22,3.96h.28c.92-1.48,2.22-2.64,3.92-3.49s3.62-1.28,5.8-1.28c3.76,0,6.58.89,8.46,2.68s2.82,4.63,2.82,8.52v20.07h-4.66v-.02Z"/>
        <path class="st13" d="M171.57,191.85c0-1.07.26-1.85.79-2.34.52-.5,1.18-.74,1.96-.74s1.39.25,1.94.76c.54.5.81,1.28.81,2.33s-.27,1.83-.81,2.34-1.19.77-1.94.77c-.79,0-1.44-.26-1.96-.77-.52-.51-.79-1.3-.79-2.34h0ZM176.62,230.95h-4.66v-30.76h4.66v30.76Z"/>
        <path class="st13" d="M213.3,230.95v-19.9c0-2.51-.57-4.38-1.71-5.61-1.14-1.24-2.93-1.85-5.36-1.85-3.22,0-5.58.87-7.07,2.61-1.5,1.74-2.25,4.61-2.25,8.62v16.14h-4.66v-30.76h3.79l.76,4.21h.22c.96-1.52,2.29-2.69,4.01-3.52s3.64-1.25,5.75-1.25c3.71,0,6.49.89,8.36,2.68s2.81,4.65,2.81,8.57v20.07h-4.66.01Z"/>
        <path class="st13" d="M237.88,215.2c.8-1.14,2.03-2.64,3.68-4.49l9.94-10.53h5.53l-12.46,13.11,13.33,17.65h-5.64l-10.86-14.54-3.51,3.03v11.51h-4.6v-43.67h4.6v23.16c0,1.03-.08,2.62-.22,4.77h.22,0Z"/>
        <path class="st13" d="M355.09,220.03c0,3.61-1.31,6.43-3.93,8.45s-6.17,3.03-10.67,3.03c-4.87,0-8.61-.63-11.23-1.88v-4.6c1.68.71,3.52,1.27,5.5,1.68,1.98.41,3.95.62,5.89.62,3.18,0,5.58-.6,7.19-1.81s2.41-2.89,2.41-5.04c0-1.42-.29-2.59-.86-3.49-.57-.91-1.53-1.75-2.86-2.51-1.34-.77-3.37-1.64-6.11-2.61-3.82-1.37-6.54-2.98-8.18-4.86-1.64-1.87-2.46-4.31-2.46-7.33s1.19-5.68,3.56-7.55c2.38-1.87,5.52-2.81,9.43-2.81s7.83.75,11.25,2.25l-1.49,4.15c-3.39-1.42-6.68-2.13-9.88-2.13-2.53,0-4.5.54-5.92,1.63s-2.13,2.59-2.13,4.52c0,1.42.26,2.59.79,3.5.52.91,1.41,1.74,2.65,2.5s3.15,1.6,5.71,2.51c4.3,1.53,7.26,3.18,8.88,4.94s2.43,4.04,2.43,6.85h.03Z"/>
        <path class="st13" d="M378.47,227.66c.82,0,1.62-.06,2.39-.18.77-.12,1.38-.25,1.82-.38v3.56c-.5.24-1.25.44-2.23.6s-1.87.24-2.65.24c-5.95,0-8.93-3.13-8.93-9.4v-18.3h-4.41v-2.25l4.41-1.94,1.96-6.57h2.69v7.13h8.93v3.62h-8.93v18.1c0,1.85.44,3.27,1.32,4.27.88.99,2.09,1.49,3.62,1.49h0Z"/>
        <path class="st13" d="M408.61,199.62c1.37,0,2.59.11,3.68.34l-.65,4.32c-1.27-.28-2.4-.42-3.37-.42-2.49,0-4.62,1.01-6.39,3.03-1.77,2.02-2.65,4.54-2.65,7.55v16.5h-4.66v-30.76h3.85l.53,5.7h.22c1.14-2,2.52-3.55,4.13-4.63,1.61-1.08,3.38-1.63,5.3-1.63h.01Z"/>
        <path class="st13" d="M442.7,230.95l-.93-4.38h-.22c-1.53,1.93-3.06,3.23-4.59,3.92s-3.43,1.02-5.71,1.02c-3.05,0-5.44-.79-7.17-2.36s-2.6-3.81-2.6-6.71c0-6.21,4.97-9.47,14.9-9.77l5.22-.17v-1.91c0-2.41-.52-4.2-1.56-5.35-1.04-1.15-2.7-1.73-4.98-1.73-2.56,0-5.46.79-8.7,2.36l-1.43-3.57c1.52-.82,3.18-1.47,4.98-1.94,1.81-.47,3.62-.7,5.43-.7,3.67,0,6.38.81,8.15,2.44s2.65,4.24,2.65,7.83v20.99h-3.45v.03ZM432.18,227.66c2.9,0,5.18-.8,6.83-2.39,1.66-1.59,2.48-3.82,2.48-6.68v-2.78l-4.66.2c-3.71.13-6.38.71-8.01,1.73-1.64,1.02-2.46,2.61-2.46,4.76,0,1.68.51,2.97,1.53,3.85s2.45,1.32,4.28,1.32h.01Z"/>
        <path class="st13" d="M471.44,227.66c.82,0,1.62-.06,2.39-.18.77-.12,1.38-.25,1.82-.38v3.56c-.5.24-1.25.44-2.23.6s-1.87.24-2.65.24c-5.95,0-8.93-3.13-8.93-9.4v-18.3h-4.41v-2.25l4.41-1.94,1.96-6.57h2.69v7.13h8.93v3.62h-8.93v18.1c0,1.85.44,3.27,1.32,4.27.88.99,2.09,1.49,3.62,1.49h0Z"/>
        <path class="st13" d="M500.54,231.51c-4.55,0-8.13-1.38-10.76-4.15-2.63-2.77-3.94-6.61-3.94-11.54s1.22-8.9,3.66-11.82c2.44-2.92,5.72-4.38,9.84-4.38,3.85,0,6.9,1.27,9.15,3.8s3.37,5.88,3.37,10.03v2.95h-21.19c.09,3.61,1,6.35,2.74,8.22,1.73,1.87,4.17,2.81,7.31,2.81,3.31,0,6.59-.69,9.82-2.08v4.15c-1.65.71-3.2,1.22-4.67,1.53s-3.24.46-5.32.46v.02ZM499.28,203.52c-2.47,0-4.44.8-5.91,2.41s-2.33,3.84-2.6,6.68h16.08c0-2.94-.66-5.19-1.96-6.75-1.31-1.56-3.18-2.34-5.61-2.34Z"/>
        <path class="st13" d="M550.72,200.18v2.95l-5.7.67c.52.66.99,1.51,1.4,2.57.41,1.06.62,2.25.62,3.58,0,3.01-1.03,5.42-3.09,7.21-2.06,1.8-4.88,2.7-8.48,2.7-.92,0-1.78-.08-2.58-.22-1.98,1.05-2.98,2.37-2.98,3.96,0,.84.35,1.46,1.04,1.87.69.4,1.88.6,3.57.6h5.44c3.33,0,5.89.7,7.68,2.11,1.79,1.4,2.68,3.44,2.68,6.12,0,3.41-1.37,6-4.1,7.79s-6.72,2.68-11.96,2.68c-4.02,0-7.12-.75-9.3-2.25s-3.27-3.61-3.27-6.34c0-1.87.6-3.49,1.8-4.86s2.88-2.29,5.05-2.78c-.79-.36-1.45-.91-1.98-1.66-.53-.75-.8-1.62-.8-2.61,0-1.12.3-2.11.9-2.95s1.54-1.66,2.83-2.44c-1.59-.66-2.89-1.77-3.89-3.34-1-1.57-1.5-3.37-1.5-5.39,0-3.37,1.01-5.96,3.03-7.79,2.02-1.83,4.88-2.74,8.59-2.74,1.61,0,3.06.19,4.35.56h10.65ZM526.19,236.11c0,1.67.7,2.93,2.11,3.79,1.4.86,3.42,1.29,6.03,1.29,3.91,0,6.81-.58,8.69-1.75s2.82-2.75,2.82-4.76c0-1.67-.51-2.82-1.54-3.47s-2.97-.97-5.81-.97h-5.58c-2.12,0-3.76.5-4.94,1.52-1.18,1.01-1.77,2.46-1.77,4.35h-.01ZM528.71,210.03c0,2.15.61,3.78,1.82,4.88,1.22,1.1,2.91,1.66,5.08,1.66,4.55,0,6.82-2.21,6.82-6.62s-2.3-6.93-6.9-6.93c-2.19,0-3.87.59-5.05,1.77s-1.77,2.93-1.77,5.25h0Z"/>
        <path class="st13" d="M562.39,191.85c0-1.07.26-1.85.79-2.34.52-.5,1.18-.74,1.96-.74s1.39.25,1.94.76c.54.5.81,1.28.81,2.33s-.27,1.83-.81,2.34-1.19.77-1.94.77c-.79,0-1.44-.26-1.96-.77-.52-.51-.79-1.3-.79-2.34h0ZM567.44,230.95h-4.66v-30.76h4.66v30.76Z"/>
        <path class="st13" d="M602.74,230.95h-22.31v-3.17l16.78-23.97h-15.75v-3.62h20.85v3.62l-16.56,23.52h16.98v3.62h.01Z"/>
        <path class="st13" d="M628.7,231.51c-4.55,0-8.13-1.38-10.76-4.15-2.63-2.77-3.94-6.61-3.94-11.54s1.22-8.9,3.66-11.82c2.44-2.92,5.72-4.38,9.84-4.38,3.85,0,6.9,1.27,9.15,3.8s3.37,5.88,3.37,10.03v2.95h-21.19c.09,3.61,1,6.35,2.74,8.22,1.73,1.87,4.17,2.81,7.31,2.81,3.31,0,6.59-.69,9.82-2.08v4.15c-1.65.71-3.2,1.22-4.67,1.53s-3.24.46-5.32.46v.02ZM627.44,203.52c-2.47,0-4.44.8-5.91,2.41s-2.33,3.84-2.6,6.68h16.08c0-2.94-.66-5.19-1.96-6.75-1.31-1.56-3.18-2.34-5.61-2.34h0Z"/>
        <path class="st13" d="M739.6,220.03c0,3.61-1.31,6.43-3.93,8.45s-6.17,3.03-10.67,3.03c-4.87,0-8.61-.63-11.23-1.88v-4.6c1.68.71,3.52,1.27,5.5,1.68,1.98.41,3.95.62,5.89.62,3.18,0,5.58-.6,7.19-1.81s2.41-2.89,2.41-5.04c0-1.42-.29-2.59-.86-3.49-.57-.91-1.53-1.75-2.86-2.51-1.34-.77-3.37-1.64-6.11-2.61-3.82-1.37-6.54-2.98-8.18-4.86-1.64-1.87-2.46-4.31-2.46-7.33s1.19-5.68,3.56-7.55c2.38-1.87,5.52-2.81,9.43-2.81s7.83.75,11.25,2.25l-1.49,4.15c-3.39-1.42-6.68-2.13-9.88-2.13-2.53,0-4.5.54-5.92,1.63s-2.13,2.59-2.13,4.52c0,1.42.26,2.59.79,3.5.52.91,1.41,1.74,2.65,2.5,1.24.76,3.15,1.6,5.71,2.51,4.3,1.53,7.26,3.18,8.88,4.94s2.43,4.04,2.43,6.85h.03Z"/>
        <path class="st13" d="M765.33,231.51c-4.45,0-7.9-1.37-10.34-4.11s-3.66-6.62-3.66-11.63,1.24-9.12,3.72-11.93,6.01-4.21,10.6-4.21c1.48,0,2.96.16,4.43.48s2.64.69,3.48,1.12l-1.43,3.96c-1.03-.41-2.15-.75-3.37-1.02s-2.29-.41-3.23-.41c-6.25,0-9.37,3.99-9.37,11.96,0,3.78.76,6.68,2.29,8.7,1.52,2.02,3.78,3.03,6.78,3.03,2.56,0,5.19-.55,7.89-1.66v4.13c-2.06,1.07-4.65,1.6-7.77,1.6h-.02Z"/>
        <path class="st13" d="M805.07,230.95l-.93-4.38h-.22c-1.53,1.93-3.06,3.23-4.59,3.92s-3.43,1.02-5.71,1.02c-3.05,0-5.44-.79-7.17-2.36s-2.6-3.81-2.6-6.71c0-6.21,4.97-9.47,14.9-9.77l5.22-.17v-1.91c0-2.41-.52-4.2-1.56-5.35-1.04-1.15-2.7-1.73-4.98-1.73-2.56,0-5.46.79-8.7,2.36l-1.43-3.57c1.52-.82,3.18-1.47,4.98-1.94,1.81-.47,3.62-.7,5.43-.7,3.67,0,6.38.81,8.15,2.44s2.65,4.24,2.65,7.83v20.99h-3.45v.03ZM794.55,227.66c2.9,0,5.18-.8,6.83-2.39,1.66-1.59,2.48-3.82,2.48-6.68v-2.78l-4.66.2c-3.71.13-6.38.71-8.01,1.73-1.64,1.02-2.46,2.61-2.46,4.76,0,1.68.51,2.97,1.53,3.85s2.45,1.32,4.28,1.32h0Z"/>
        <path class="st13" d="M828.53,230.95h-4.66v-43.67h4.66v43.67Z"/>
        <path class="st13" d="M857.15,231.51c-4.55,0-8.13-1.38-10.76-4.15-2.63-2.77-3.94-6.61-3.94-11.54s1.22-8.9,3.66-11.82c2.44-2.92,5.72-4.38,9.84-4.38,3.85,0,6.9,1.27,9.15,3.8s3.37,5.88,3.37,10.03v2.95h-21.19c.09,3.61,1,6.35,2.74,8.22,1.73,1.87,4.17,2.81,7.31,2.81,3.31,0,6.59-.69,9.82-2.08v4.15c-1.65.71-3.2,1.22-4.67,1.53s-3.24.46-5.32.46v.02ZM855.89,203.52c-2.47,0-4.44.8-5.91,2.41s-2.33,3.84-2.6,6.68h16.08c0-2.94-.66-5.19-1.96-6.75-1.31-1.56-3.18-2.34-5.61-2.34h0Z"/>
      </g>
      <g>
        <path class="st6" d="M91.68,45.04v96.32c0,3.49-1.45,6.77-3.98,9-1.57,1.38-3.84,2.65-6.9,2.65-2.08,0-4.52-.59-7.34-2.11-2.64-1.43-4.52-3.66-5.54-6.47-2.55-.68-5.38-2.11-8.23-4.83-.48-.47-.88-.98-1.21-1.5-1.73-.3-5.69-1.34-8.07-4.72-1.89-2.69-2.32-6.19-1.3-10.4-5.34-1.39-9.09-4.84-10.41-9.63-1.2-4.4-.12-9.38,2.58-12.53-3.72-3.44-4.51-9.22-3.52-13.83.86-4.04,2.98-7.09,5.73-8.41-1.57-3.41-1.59-7.35,0-11.06,1.58-3.73,4.51-6.65,7.88-7.98-1.2-4.1-.18-8.12,2.91-11.21s8.11-4.71,12.41-3.89c1.16-5.03,6.97-8.74,12.47-9.23,5.11-.45,11.08,1.82,12.5,9.59.01.08.02.17.02.26v-.02Z"/>
        <g>
          <g>
            <path class="st43" d="M100.2,73.25h-9.46c-.74,0-1.41.53-1.52,1.26-.13.92.58,1.71,1.47,1.71h10.73l6.5-6.43v-20.88c1.72-.61,2.83-2.37,2.55-4.25-.16-1.03-.7-1.93-1.54-2.55-.84-.61-1.86-.87-2.89-.71-2.12.32-3.58,2.31-3.26,4.43.2,1.32,1.04,2.38,2.16,2.92v19.8l-4.75,4.69h0ZM104.83,45.28c-.02-.99.8-1.83,1.79-1.84h.01c.88,0,1.65.64,1.78,1.53.15.98-.53,1.91-1.51,2.06-1.06.16-2.05-.64-2.08-1.75h.01Z"/>
            <path class="st15" d="M110.2,64.75c-.58.58-.58,1.52,0,2.1.29.29.67.44,1.05.44s.76-.15,1.05-.44l2.43-2.43v-6.19c.76-.32,1.44-.87,1.88-1.64,1.07-1.86.43-4.24-1.42-5.31-.9-.52-1.95-.66-2.95-.39s-1.84.91-2.36,1.81c-.52.9-.66,1.95-.39,2.95.27,1,.91,1.84,1.81,2.36.15.09.3.16.46.23v4.96l-1.56,1.56h0ZM111.5,55.1c-.12-.47-.06-.95.18-1.37s.63-.72,1.1-.84c.16-.04.31-.06.47-.06.31,0,.62.08.9.24.86.5,1.16,1.6.66,2.47-.5.86-1.6,1.16-2.47.66-.42-.24-.72-.63-.84-1.1Z"/>
            <path class="st0" d="M90.44,82.22h14.55l18.87-18.87c.66-.66.57-1.77-.26-2.31-.59-.38-1.38-.26-1.87.24l-17.96,17.96h-13.37c-.89,0-1.6.79-1.47,1.71.11.74.77,1.26,1.52,1.26h0Z"/>
            <path class="st36" d="M90.39,88.15h13.3c.18,0,.34-.04.5-.09.61.81,1.63,1.26,2.7,1.1,1.55-.24,2.62-1.69,2.39-3.24-.24-1.55-1.69-2.62-3.24-2.38-1,.15-1.79.81-2.17,1.67-.06,0-.11-.02-.17-.02h-13.3c-.82,0-1.49.67-1.49,1.49s.66,1.49,1.49,1.49v-.02Z"/>
            <path class="st32" d="M126.28,106.66l-9.93-9.73h-25.66c-.82,0-1.49.67-1.49,1.49s.66,1.49,1.49,1.49h24.45l9.06,8.88c.29.28.66.42,1.04.42s.77-.15,1.06-.45c.57-.59.56-1.53-.02-2.1Z"/>
            <path class="st35" d="M120.41,115.1l2.97,2.98c.29.29.67.44,1.05.44s.76-.14,1.05-.43c.58-.58.58-1.52,0-2.1l-13.37-13.43h-21.42c-.82,0-1.49.67-1.49,1.49s.66,1.49,1.49,1.49h20.19l7.12,7.15-.9,3.22v4.29c-.66.62-1.02,1.54-.87,2.51.24,1.55,1.69,2.62,3.24,2.39,1.55-.24,2.62-1.69,2.39-3.24-.16-1.04-.86-1.86-1.78-2.22v-3.32l.34-1.2v-.02Z"/>
            <path class="st41" d="M112.25,121.83c.82,0,1.49-.67,1.49-1.49v-3.89l-7.52-8.15h-15.82c-.82,0-1.49.67-1.49,1.49s.66,1.49,1.49,1.49h14.52l5.85,6.34v2.73c0,.82.66,1.49,1.49,1.49h0Z"/>
            <path class="st30" d="M90.39,117.08h11.02l3.16,3.41v2.42c0,.82.66,1.49,1.49,1.49s1.49-.67,1.49-1.49v-3.58l-4.84-5.21h-12.32c-.82,0-1.49.67-1.49,1.49s.66,1.49,1.49,1.49v-.02Z"/>
            <path class="st19" d="M119.05,141.6h-.01c-.82,0-1.48.66-1.48,1.47-.08,1.37-4.68,7.22-9.68,7.22-1.24,0-2.42-.35-3.53-1.04-2.27-1.42-3.67-4.05-3.67-6.87v-17.29c.89-.48,1.44-1.49,1.27-2.55-.21-1.35-1.47-2.28-2.82-2.08-1.35.21-2.28,1.47-2.08,2.82.08.52.32.98.65,1.33v17.77c0,3.83,1.94,7.43,5.07,9.39,1.58.99,3.3,1.49,5.1,1.49,6.5,0,12.63-6.99,12.65-10.16,0-.82-.65-1.49-1.47-1.5h0Z"/>
            <path class="st16" d="M151.01,99.42c-.13-3.68-1.97-7.3-5.21-10.3,3.89-6.21-.85-13.79-1.06-14.13-.44-.69-1.36-.89-2.05-.45s-.9,1.36-.46,2.05c.04.07,4.41,7.1.43,11.8-.26.3-.38.7-.34,1.1.04.4.23.76.54,1.01,3.23,2.62,5.07,5.82,5.18,9.02.11,3.15-1.45,6.32-4.51,9.17-.39.37-.56.91-.43,1.44,2.18,8.99-4.23,12.91-6.96,14.15-.45-.24-.99-.35-1.53-.26-1.35.21-2.28,1.47-2.08,2.82.21,1.35,1.47,2.28,2.82,2.08,1.06-.16,1.86-.98,2.06-1.97,3.35-1.57,10.83-6.32,8.77-16.67,3.3-3.31,4.96-7.05,4.83-10.85h0Z"/>
            <path class="st5" d="M128.18,67.88h-3.37c-.4,0-.78.16-1.06.44l-3.37,3.44c-.57.59-.57,1.53.02,2.1.29.28.66.43,1.04.43s.77-.15,1.06-.44l2.94-2.99h2.75c.82,0,1.49-.67,1.49-1.49s-.66-1.49-1.49-1.49h0Z"/>
            <path class="st20" d="M119.13,74.63c-.33-.2-.75-.2-1.08,0l-5.34,3.12c-.33.19-.53.54-.53.92v6.19c0,.35.17.68.46.87l5.34,3.69c.18.12.39.19.6.19.19,0,.38-.05.55-.15l5.34-3.25c.32-.19.51-.54.51-.91v-6.56c0-.37-.2-.72-.52-.91l-5.34-3.19h0ZM117.53,86.52l-3.22-2.22v-3.5l3.22,1.86v3.86ZM118.56,80.8l-3.45-1.99,3.47-2.03,3.23,1.93-3.25,2.1h0ZM122.87,84.7l-3.22,1.96v-4.03l3.22-2.07v4.15h0Z"/>
            <path class="st27" d="M131.4,63.92v6.19c0,.35.17.68.46.87l5.34,3.69c.18.12.39.19.6.19.19,0,.38-.05.55-.15l5.34-3.25c.32-.19.51-.54.51-.91v-6.56c0-.37-.2-.72-.52-.91l-5.34-3.19c-.33-.2-.75-.2-1.08,0l-5.34,3.12c-.33.19-.53.54-.53.92h0ZM142.08,69.95l-3.22,1.96v-4.03l3.22-2.07v4.15h0ZM137.8,62.03l3.23,1.93-3.25,2.1-3.45-1.99,3.47-2.03h0ZM133.52,66.04l3.22,1.86v3.86l-3.22-2.22v-3.5Z"/>
            <path class="st42" d="M119.57,49.15v6.19c0,.35.17.68.46.87l5.34,3.69c.18.12.39.19.6.19.19,0,.38-.05.55-.15l5.34-3.25c.32-.19.51-.54.51-.91v-6.56c0-.37-.2-.72-.52-.91l-5.34-3.19c-.33-.2-.75-.2-1.08,0l-5.34,3.12c-.33.19-.53.54-.53.92h.01ZM130.26,55.17l-3.22,1.96v-4.03l3.22-2.08v4.15ZM125.97,47.26l3.23,1.93-3.25,2.1-3.45-1.99,3.47-2.03h0ZM121.69,51.27l3.22,1.86v3.86l-3.22-2.22v-3.5Z"/>
            <path class="st34" d="M134.44,106.97c-.33-.2-.75-.2-1.08,0l-5.34,3.12c-.33.19-.53.54-.53.92v6.19c0,.35.17.68.46.87l5.34,3.69c.18.12.39.19.6.19.19,0,.38-.05.55-.15l5.34-3.25c.32-.19.51-.54.51-.91v-6.56c0-.37-.2-.72-.52-.91l-5.34-3.19h0ZM132.84,118.85l-3.22-2.22v-3.5l3.22,1.86v3.86ZM133.87,113.13l-3.45-1.99,3.47-2.03,3.23,1.93-3.25,2.1h0ZM138.18,117.03l-3.22,1.96v-4.03l3.22-2.07v4.15h0Z"/>
            <path class="st39" d="M131.88,129.77l-5.34-3.19c-.33-.2-.75-.2-1.08,0l-5.34,3.12c-.33.19-.53.54-.53.92v6.19c0,.35.17.68.46.87l5.34,3.69c.18.12.39.19.6.19.19,0,.38-.05.55-.15l5.34-3.25c.32-.19.51-.54.51-.91v-6.56c0-.37-.2-.72-.52-.91h0ZM124.93,138.47l-3.22-2.22v-3.5l3.22,1.86v3.86ZM125.96,132.75l-3.45-1.99,3.47-2.03,3.23,1.93-3.25,2.1h0ZM130.27,136.65l-3.22,1.96v-4.03l3.22-2.08v4.15Z"/>
            <path class="st21" d="M116.95,136.06c.32-.19.51-.54.51-.91v-6.56c0-.37-.2-.72-.52-.91l-5.34-3.19c-.33-.2-.75-.2-1.08,0l-5.34,3.12c-.33.19-.53.54-.53.92v6.19c0,.35.17.68.46.87l5.34,3.69c.18.12.39.19.6.19.19,0,.38-.05.55-.15l5.34-3.25h0ZM115.34,134.55l-3.22,1.96v-4.03l3.22-2.07v4.15h0ZM110,136.38l-3.22-2.22v-3.5l3.22,1.86v3.86ZM111.03,130.66l-3.45-1.99,3.47-2.03,3.23,1.93-3.25,2.1h0Z"/>
            <path class="st40" d="M142.41,105.06c1.26-.26,2.34-.99,3.05-2.06s.96-2.35.7-3.61c-.26-1.26-.99-2.34-2.06-3.05s-2.35-.96-3.61-.7-2.34.99-3.05,2.06c-.24.37-.43.76-.56,1.16h-7.96l-4.69-4.65h5.77c.17,0,.33-.03.49-.09,1.03,1.08,2.47,1.73,4.01,1.73.37,0,.74-.04,1.11-.11,3-.61,4.94-3.55,4.32-6.54-.3-1.45-1.14-2.7-2.38-3.52s-2.72-1.1-4.17-.81c-1.45.3-2.7,1.14-3.52,2.38-.78,1.19-1.07,2.6-.83,3.99h-38.64c-.82,0-1.49.67-1.49,1.49s.66,1.49,1.49,1.49h29.72c.07.14.16.27.27.38l7.31,7.24h9.18c.33,1.03,1,1.92,1.92,2.53.8.53,1.71.8,2.64.8.32,0,.65-.03.97-.1h.01ZM133.97,87.78c.17-.04.35-.05.52-.05.5,0,.99.15,1.41.43.57.38.97.96,1.1,1.63.28,1.39-.62,2.76-2.01,3.04s-2.76-.62-3.04-2.01.62-2.75,2.01-3.04h0ZM139.25,100.8s0-.07,0-.1c.03-.11.04-.22.04-.34s-.02-.24-.05-.35c.05-.31.16-.61.34-.88.33-.5.83-.84,1.42-.96.15-.03.3-.05.45-.05.43,0,.86.13,1.23.37.5.33.84.83.96,1.42.12.58,0,1.18-.32,1.68-.33.5-.83.84-1.42.96-.58.12-1.18,0-1.68-.32-.5-.33-.84-.83-.96-1.42h0Z"/>
            <path class="st17" d="M109.4,140.36c-.86-.58-1.89-.8-2.91-.61-1.02.19-1.9.77-2.49,1.63-.58.86-.8,1.89-.61,2.91s.77,1.9,1.63,2.49c.65.44,1.41.67,2.18.67.24,0,.49-.02.73-.07,2.1-.4,3.49-2.44,3.09-4.54-.19-1.02-.77-1.9-1.63-2.49h.01ZM107.55,145.34c-.47.09-.95,0-1.35-.28-.4-.27-.67-.68-.76-1.15-.09-.47,0-.95.28-1.35s.68-.67,1.16-.76c.11-.02.23-.03.34-.03.36,0,.71.11,1.01.31.4.27.67.68.76,1.15.19.98-.46,1.92-1.44,2.11Z"/>
            <path class="st26" d="M127.23,80.31c.21,1.35,1.47,2.28,2.82,2.08.73-.11,1.33-.53,1.71-1.11h4.81c.53.71,1.42,1.11,2.35.96,1.35-.21,2.28-1.47,2.08-2.82-.21-1.35-1.47-2.28-2.82-2.08-.67.1-1.23.46-1.61.96h-5.03c-.54-.62-1.37-.95-2.24-.82-1.35.21-2.28,1.47-2.08,2.82h.01Z"/>
            <path class="st31" d="M99.28,70.31c1.35-.21,2.28-1.47,2.08-2.82-.1-.67-.46-1.23-.96-1.61v-20.26c-.03-.75-.08-7.35,6.26-7.74,4.62-.05,9.34,3.34,10.51,7.62.22.79,1.03,1.26,1.82,1.04.79-.22,1.26-1.03,1.04-1.82-1.51-5.54-7.29-9.81-13.23-9.81h-.28c-7.51.44-9.22,7.23-9.08,10.79v20.16c-.71.53-1.11,1.42-.97,2.36.21,1.35,1.47,2.28,2.82,2.08h-.01Z"/>
          </g>
          <g>
            <path class="st9" d="M100.2,73.25h-9.46c-.74,0-1.41.53-1.52,1.26-.13.92.58,1.71,1.47,1.71h10.73l6.5-6.43v-20.88c1.72-.61,2.83-2.37,2.55-4.25-.16-1.03-.7-1.93-1.54-2.55-.84-.61-1.86-.87-2.89-.71-2.12.32-3.58,2.31-3.26,4.43.2,1.32,1.04,2.38,2.16,2.92v19.8l-4.75,4.69h0ZM104.83,45.28c-.02-.99.8-1.83,1.79-1.84h.01c.88,0,1.65.64,1.78,1.53.15.98-.53,1.91-1.51,2.06-1.06.16-2.05-.64-2.08-1.75h.01Z"/>
            <path class="st24" d="M110.2,64.75c-.58.58-.58,1.52,0,2.1.29.29.67.44,1.05.44s.76-.15,1.05-.44l2.43-2.43v-6.19c.76-.32,1.44-.87,1.88-1.64,1.07-1.86.43-4.24-1.42-5.31-.9-.52-1.95-.66-2.95-.39s-1.84.91-2.36,1.81c-.52.9-.66,1.95-.39,2.95.27,1,.91,1.84,1.81,2.36.15.09.3.16.46.23v4.96l-1.56,1.56h0ZM111.5,55.1c-.12-.47-.06-.95.18-1.37s.63-.72,1.1-.84c.16-.04.31-.06.47-.06.31,0,.62.08.9.24.86.5,1.16,1.6.66,2.47-.5.86-1.6,1.16-2.47.66-.42-.24-.72-.63-.84-1.1Z"/>
            <path class="st18" d="M90.44,82.22h14.55l18.87-18.87c.66-.66.57-1.77-.26-2.31-.59-.38-1.38-.26-1.87.24l-17.96,17.96h-13.37c-.89,0-1.6.79-1.47,1.71.11.74.77,1.26,1.52,1.26h0Z"/>
            <path class="st22" d="M90.39,88.15h13.3c.18,0,.34-.04.5-.09.61.81,1.63,1.26,2.7,1.1,1.55-.24,2.62-1.69,2.39-3.24-.24-1.55-1.69-2.62-3.24-2.38-1,.15-1.79.81-2.17,1.67-.06,0-.11-.02-.17-.02h-13.3c-.82,0-1.49.67-1.49,1.49s.66,1.49,1.49,1.49v-.02Z"/>
            <path class="st38" d="M126.28,106.66l-9.93-9.73h-25.66c-.82,0-1.49.67-1.49,1.49s.66,1.49,1.49,1.49h24.45l9.06,8.88c.29.28.66.42,1.04.42s.77-.15,1.06-.45c.57-.59.56-1.53-.02-2.1Z"/>
            <path class="st14" d="M120.41,115.1l2.97,2.98c.29.29.67.44,1.05.44s.76-.14,1.05-.43c.58-.58.58-1.52,0-2.1l-13.37-13.43h-21.42c-.82,0-1.49.67-1.49,1.49s.66,1.49,1.49,1.49h20.19l7.12,7.15-.9,3.22v4.29c-.66.62-1.02,1.54-.87,2.51.24,1.55,1.69,2.62,3.24,2.39,1.55-.24,2.62-1.69,2.39-3.24-.16-1.04-.86-1.86-1.78-2.22v-3.32l.34-1.2v-.02Z"/>
            <path class="st11" d="M112.25,121.83c.82,0,1.49-.67,1.49-1.49v-3.89l-7.52-8.15h-15.82c-.82,0-1.49.67-1.49,1.49s.66,1.49,1.49,1.49h14.52l5.85,6.34v2.73c0,.82.66,1.49,1.49,1.49h0Z"/>
            <path class="st28" d="M90.39,117.08h11.02l3.16,3.41v2.42c0,.82.66,1.49,1.49,1.49s1.49-.67,1.49-1.49v-3.58l-4.84-5.21h-12.32c-.82,0-1.49.67-1.49,1.49s.66,1.49,1.49,1.49v-.02Z"/>
            <path class="st25" d="M119.05,141.6h-.01c-.82,0-1.48.66-1.48,1.47-.08,1.37-4.68,7.22-9.68,7.22-1.24,0-2.42-.35-3.53-1.04-2.27-1.42-3.67-4.05-3.67-6.87v-17.29c.89-.48,1.44-1.49,1.27-2.55-.21-1.35-1.47-2.28-2.82-2.08-1.35.21-2.28,1.47-2.08,2.82.08.52.32.98.65,1.33v17.77c0,3.83,1.94,7.43,5.07,9.39,1.58.99,3.3,1.49,5.1,1.49,6.5,0,12.63-6.99,12.65-10.16,0-.82-.65-1.49-1.47-1.5h0Z"/>
            <path class="st23" d="M151.01,99.42c-.13-3.68-1.97-7.3-5.21-10.3,3.89-6.21-.85-13.79-1.06-14.13-.44-.69-1.36-.89-2.05-.45s-.9,1.36-.46,2.05c.04.07,4.41,7.1.43,11.8-.26.3-.38.7-.34,1.1.04.4.23.76.54,1.01,3.23,2.62,5.07,5.82,5.18,9.02.11,3.15-1.45,6.32-4.51,9.17-.39.37-.56.91-.43,1.44,2.18,8.99-4.23,12.91-6.96,14.15-.45-.24-.99-.35-1.53-.26-1.35.21-2.28,1.47-2.08,2.82.21,1.35,1.47,2.28,2.82,2.08,1.06-.16,1.86-.98,2.06-1.97,3.35-1.57,10.83-6.32,8.77-16.67,3.3-3.31,4.96-7.05,4.83-10.85h0Z"/>
            <path class="st33" d="M128.18,67.88h-3.37c-.4,0-.78.16-1.06.44l-3.37,3.44c-.57.59-.57,1.53.02,2.1.29.28.66.43,1.04.43s.77-.15,1.06-.44l2.94-2.99h2.75c.82,0,1.49-.67,1.49-1.49s-.66-1.49-1.49-1.49h0Z"/>
            <path class="st7" d="M119.13,74.63c-.33-.2-.75-.2-1.08,0l-5.34,3.12c-.33.19-.53.54-.53.92v6.19c0,.35.17.68.46.87l5.34,3.69c.18.12.39.19.6.19.19,0,.38-.05.55-.15l5.34-3.25c.32-.19.51-.54.51-.91v-6.56c0-.37-.2-.72-.52-.91l-5.34-3.19h0ZM117.53,86.52l-3.22-2.22v-3.5l3.22,1.86v3.86ZM118.56,80.8l-3.45-1.99,3.47-2.03,3.23,1.93-3.25,2.1h0ZM122.87,84.7l-3.22,1.96v-4.03l3.22-2.07v4.15h0Z"/>
            <path class="st4" d="M131.4,63.92v6.19c0,.35.17.68.46.87l5.34,3.69c.18.12.39.19.6.19.19,0,.38-.05.55-.15l5.34-3.25c.32-.19.51-.54.51-.91v-6.56c0-.37-.2-.72-.52-.91l-5.34-3.19c-.33-.2-.75-.2-1.08,0l-5.34,3.12c-.33.19-.53.54-.53.92h0ZM142.08,69.95l-3.22,1.96v-4.03l3.22-2.07v4.15h0ZM137.8,62.03l3.23,1.93-3.25,2.1-3.45-1.99,3.47-2.03h0ZM133.52,66.04l3.22,1.86v3.86l-3.22-2.22v-3.5Z"/>
            <path class="st3" d="M119.57,49.15v6.19c0,.35.17.68.46.87l5.34,3.69c.18.12.39.19.6.19.19,0,.38-.05.55-.15l5.34-3.25c.32-.19.51-.54.51-.91v-6.56c0-.37-.2-.72-.52-.91l-5.34-3.19c-.33-.2-.75-.2-1.08,0l-5.34,3.12c-.33.19-.53.54-.53.92h.01ZM130.26,55.17l-3.22,1.96v-4.03l3.22-2.08v4.15ZM125.97,47.26l3.23,1.93-3.25,2.1-3.45-1.99,3.47-2.03h0ZM121.69,51.27l3.22,1.86v3.86l-3.22-2.22v-3.5Z"/>
            <path class="st12" d="M134.44,106.97c-.33-.2-.75-.2-1.08,0l-5.34,3.12c-.33.19-.53.54-.53.92v6.19c0,.35.17.68.46.87l5.34,3.69c.18.12.39.19.6.19.19,0,.38-.05.55-.15l5.34-3.25c.32-.19.51-.54.51-.91v-6.56c0-.37-.2-.72-.52-.91l-5.34-3.19h0ZM132.84,118.85l-3.22-2.22v-3.5l3.22,1.86v3.86ZM133.87,113.13l-3.45-1.99,3.47-2.03,3.23,1.93-3.25,2.1h0ZM138.18,117.03l-3.22,1.96v-4.03l3.22-2.07v4.15h0Z"/>
            <path class="st1" d="M131.88,129.77l-5.34-3.19c-.33-.2-.75-.2-1.08,0l-5.34,3.12c-.33.19-.53.54-.53.92v6.19c0,.35.17.68.46.87l5.34,3.69c.18.12.39.19.6.19.19,0,.38-.05.55-.15l5.34-3.25c.32-.19.51-.54.51-.91v-6.56c0-.37-.2-.72-.52-.91h0ZM124.93,138.47l-3.22-2.22v-3.5l3.22,1.86v3.86ZM125.96,132.75l-3.45-1.99,3.47-2.03,3.23,1.93-3.25,2.1h0ZM130.27,136.65l-3.22,1.96v-4.03l3.22-2.08v4.15Z"/>
            <path class="st10" d="M116.95,136.06c.32-.19.51-.54.51-.91v-6.56c0-.37-.2-.72-.52-.91l-5.34-3.19c-.33-.2-.75-.2-1.08,0l-5.34,3.12c-.33.19-.53.54-.53.92v6.19c0,.35.17.68.46.87l5.34,3.69c.18.12.39.19.6.19.19,0,.38-.05.55-.15l5.34-3.25h0ZM115.34,134.55l-3.22,1.96v-4.03l3.22-2.07v4.15h0ZM110,136.38l-3.22-2.22v-3.5l3.22,1.86v3.86ZM111.03,130.66l-3.45-1.99,3.47-2.03,3.23,1.93-3.25,2.1h0Z"/>
            <path class="st37" d="M142.41,105.06c1.26-.26,2.34-.99,3.05-2.06s.96-2.35.7-3.61c-.26-1.26-.99-2.34-2.06-3.05s-2.35-.96-3.61-.7-2.34.99-3.05,2.06c-.24.37-.43.76-.56,1.16h-7.96l-4.69-4.65h5.77c.17,0,.33-.03.49-.09,1.03,1.08,2.47,1.73,4.01,1.73.37,0,.74-.04,1.11-.11,3-.61,4.94-3.55,4.32-6.54-.3-1.45-1.14-2.7-2.38-3.52s-2.72-1.1-4.17-.81c-1.45.3-2.7,1.14-3.52,2.38-.78,1.19-1.07,2.6-.83,3.99h-38.64c-.82,0-1.49.67-1.49,1.49s.66,1.49,1.49,1.49h29.72c.07.14.16.27.27.38l7.31,7.24h9.18c.33,1.03,1,1.92,1.92,2.53.8.53,1.71.8,2.64.8.32,0,.65-.03.97-.1h.01ZM133.97,87.78c.17-.04.35-.05.52-.05.5,0,.99.15,1.41.43.57.38.97.96,1.1,1.63.28,1.39-.62,2.76-2.01,3.04s-2.76-.62-3.04-2.01.62-2.75,2.01-3.04h0ZM139.25,100.8s0-.07,0-.1c.03-.11.04-.22.04-.34s-.02-.24-.05-.35c.05-.31.16-.61.34-.88.33-.5.83-.84,1.42-.96.15-.03.3-.05.45-.05.43,0,.86.13,1.23.37.5.33.84.83.96,1.42.12.58,0,1.18-.32,1.68-.33.5-.83.84-1.42.96-.58.12-1.18,0-1.68-.32-.5-.33-.84-.83-.96-1.42h0Z"/>
            <path class="st2" d="M109.4,140.36c-.86-.58-1.89-.8-2.91-.61-1.02.19-1.9.77-2.49,1.63-.58.86-.8,1.89-.61,2.91s.77,1.9,1.63,2.49c.65.44,1.41.67,2.18.67.24,0,.49-.02.73-.07,2.1-.4,3.49-2.44,3.09-4.54-.19-1.02-.77-1.9-1.63-2.49h.01ZM107.55,145.34c-.47.09-.95,0-1.35-.28-.4-.27-.67-.68-.76-1.15-.09-.47,0-.95.28-1.35s.68-.67,1.16-.76c.11-.02.23-.03.34-.03.36,0,.71.11,1.01.31.4.27.67.68.76,1.15.19.98-.46,1.92-1.44,2.11Z"/>
            <path class="st29" d="M127.23,80.31c.21,1.35,1.47,2.28,2.82,2.08.73-.11,1.33-.53,1.71-1.11h4.81c.53.71,1.42,1.11,2.35.96,1.35-.21,2.28-1.47,2.08-2.82-.21-1.35-1.47-2.28-2.82-2.08-.67.1-1.23.46-1.61.96h-5.03c-.54-.62-1.37-.95-2.24-.82-1.35.21-2.28,1.47-2.08,2.82h.01Z"/>
            <path class="st44" d="M99.28,70.31c1.35-.21,2.28-1.47,2.08-2.82-.1-.67-.46-1.23-.96-1.61v-20.26c-.03-.75-.08-7.35,6.26-7.74,4.62-.05,9.34,3.34,10.51,7.62.22.79,1.03,1.26,1.82,1.04.79-.22,1.26-1.03,1.04-1.82-1.51-5.54-7.29-9.81-13.23-9.81h-.28c-7.51.44-9.22,7.23-9.08,10.79v20.16c-.71.53-1.11,1.42-.97,2.36.21,1.35,1.47,2.28,2.82,2.08h-.01Z"/>
          </g>
        </g>
        <g>
          <path class="st8" d="M91.66,44.78c-1.42-7.77-7.39-10.05-12.5-9.59-5.5.5-11.3,4.21-12.47,9.23-4.3-.81-9.18.66-12.41,3.89s-4.12,7.11-2.91,11.21c-3.37,1.32-6.3,4.25-7.88,7.98-1.58,3.71-1.55,7.65,0,11.06-2.75,1.32-4.87,4.37-5.73,8.41-.99,4.61-.21,10.39,3.52,13.83-2.7,3.16-3.79,8.13-2.58,12.53,1.32,4.79,5.07,8.24,10.41,9.63-1.02,4.21-.59,7.71,1.3,10.4,2.38,3.39,6.35,4.42,8.07,4.72.34.53.74,1.03,1.21,1.5,2.84,2.72,5.68,4.15,8.23,4.83,1.02,2.81,2.9,5.05,5.54,6.47,2.83,1.52,5.26,2.11,7.34,2.11,3.05,0,5.33-1.26,6.9-2.65,2.53-2.23,3.98-5.5,3.98-9V45.04c0-.09,0-.17-.02-.26h-.01ZM88.62,110.91c-1.58-1.93-3.92-3.87-7.29-4.91-.81-.25-1.67.19-1.92.97s.19,1.62,1,1.86c5.92,1.81,7.88,7.2,8.21,8.23v24.29c0,2.66-1.09,5.13-2.98,6.8-2.76,2.43-6.36,2.48-10.69.14-1.6-.86-2.68-2.05-3.42-3.34.16,0,.32,0,.48,0,2.35,0,4.16-.53,5.04-.86,3.36-1.24,5.64-3.67,5.81-6.2.07-.97-.14-2.64-1.9-4.11,5-6.61,4.26-11.69,2.68-14.86-2.61-5.21-8.77-8.02-12.42-8.52.98-1.33,2.29-3.3,3.68-5.89,1.14-1.43,3.13-2.26,5.43-3.22,2.7-1.13,5.85-2.46,8.3-5.19v14.8ZM88.62,68.08c-1.73-2.34-4.17-4.41-7.41-5.16,2.45-2.65,3.22-5.99,2.77-8.67-.6-3.59-3.24-6.21-6.91-6.83-2.44-.42-4.42.05-5.86,1.37-2.76,2.53-2.3,7.12-2.24,7.64.1.81.85,1.39,1.69,1.3.84-.09,1.44-.83,1.35-1.64-.11-1-.1-3.86,1.3-5.14.71-.65,1.77-.85,3.23-.6,2.41.41,4.02,2,4.41,4.37.44,2.64-.82,6.18-4.62,8.16-.65.34-.96,1.08-.73,1.76.23.68.92,1.11,1.65,1.02,8.08-1.01,10.96,7.85,11.35,9.22v15.53c-.09.11-.17.23-.22.36-1.87,4.71-5.65,6.29-9.29,7.82-2.63,1.1-5.12,2.14-6.74,4.27-.05.06-.09.13-.13.2-2.19,4.1-4.18,6.55-4.8,7.27-2.52-.09-3.46-.41-3.75-.53-.29-.43-.81-.7-1.38-.66-.84.06-1.48.76-1.43,1.58.13,1.92,2.97,2.73,9.19,2.61h.07c2.51,0,8.46,2.4,10.73,6.93,1.88,3.76.77,8.12-3.31,12.95-.29.34-.41.79-.32,1.23.09.43.37.81.77,1.02.85.45,1.85,1.2,1.78,2.27-.09,1.33-1.67,2.82-3.84,3.62-.88.33-2.92.9-5.57.56-.26-1.26-.32-2.45-.29-3.38.12-4.6,1.98-7.93,2.68-8.27.81-.22,1.29-1.04,1.07-1.82-.23-.79-1.07-1.26-1.89-1.04-2.48.67-4.28,5.09-4.78,9.12-.19,1.59-.21,3.11-.04,4.52-1.67-.68-3.46-1.79-5.27-3.51-1.47-1.47-1.91-3.37-1.31-5.64,1.21-4.56,6.22-9.2,8.87-9.99.81-.24,1.26-1.07,1.02-1.85s-1.1-1.23-1.91-.98c-3.88,1.15-9.51,6.68-10.94,12.09-.33,1.26-.43,2.47-.31,3.6-1.42-.48-3.19-1.38-4.35-3.04-1.44-2.07-1.68-4.94-.71-8.53,1.87-.37,5.92-1.41,8.67-3.81.63-.55.68-1.49.11-2.1s-1.54-.66-2.17-.11c-2.53,2.21-6.76,3.04-7.81,3.22-6.62-1.24-8.71-5.39-9.36-7.77-.97-3.53-.06-7.63,2.11-10.02.84.48,2.12,1.15,3.67,1.79-1.36,5.8,1.85,9.51,3.89,10.72.25.15.53.22.8.22.51,0,1.02-.25,1.3-.71.44-.7.22-1.61-.5-2.04-.04-.03-3.56-2.19-2.58-7.18,1.65.47,3.45.79,5.26.79,1.3,0,2.6-.17,3.87-.56,3.41-1.07,5.95-3.58,7.56-7.47,4.22-.24,7.44-1.68,7.51-1.71.76-.35,1.09-1.23.73-1.97-.36-.74-1.27-1.06-2.04-.71-.48.22-11.85,5.25-18.36-4.35-5.47-8.08-1.4-15.85,1.15-17.58.69-.47.86-1.4.38-2.07-.49-.67-1.44-.83-2.14-.36-3.35,2.28-8.66,11.75-1.95,21.65,3.24,4.78,7.49,6.58,11.4,7.03-1.24,2.45-2.98,4.04-5.18,4.73-6.09,1.91-14.02-3.22-14.13-3.3h0c-3.74-2.4-4.51-7.83-3.65-11.86.78-3.67,2.82-6.3,5.19-6.71.5-.08.92-.41,1.13-.86.21-.45.17-.97-.1-1.39-1.88-2.93-2.13-6.56-.67-9.99,1.44-3.38,4.33-6.02,7.36-6.71h.07c.08-.02,8.42-2.25,12.77,1.68,2.78,2.52,3.46,7.14,2.03,13.73-.18.8.35,1.59,1.18,1.76.11.02.21.03.32.03.71,0,1.34-.48,1.5-1.18,1.67-7.69.67-13.25-2.95-16.52-4.42-3.99-11.32-3.24-14.27-2.68-1.22-4.11.77-6.95,2.16-8.35,2.89-2.89,7.41-3.98,11-2.67.47.17,1,.11,1.42-.17s.66-.74.65-1.23c-.04-4.28,5.18-7.74,9.9-8.16,2.32-.21,7.84.06,9.17,7.03v22.91l.02-.1Z"/>
          <path class="st8" d="M82.61,83.02c1.87-4.51-.33-10.73-1.17-11.58-.58-.58-1.52-.58-2.1,0-.53.53-.58,1.35-.14,1.93.53.97,2.16,6.02.37,9.12-1.08,1.87-3.35,2.82-6.73,2.82h0c-4.01,0-6.72-1.01-8.03-3-2.27-3.43,0-8.9.03-8.99.32-.75-.03-1.63-.78-1.95s-1.63.03-1.95.78c-.12.28-2.93,7.01.22,11.79,1.9,2.88,5.44,4.34,10.52,4.34h0c6.28,0,8.78-2.86,9.78-5.27h-.02Z"/>
        </g>
      </g>
    </g>
    <path class="st13" d="M289.94,189.02h3.19v46.41h-3.19v-46.41Z"/>
    <path class="st13" d="M671.14,189.58h3.19v46.41h-3.19v-46.41Z"/>
  </g>
  <g>
    <g>
      <path class="st13" d="M177,46.38h19.01c.85,0,1.64.46,2.06,1.21l32.62,58.02c.91,1.61,3.23,1.61,4.13,0l32.37-58.01c.42-.75,1.21-1.21,2.06-1.21h18.88c1.31,0,2.36,1.06,2.36,2.36v91.67c0,1.31-1.06,2.36-2.36,2.36h-12.08c-1.31,0-2.36-1.06-2.36-2.36v-63.13c0-2.43-3.22-3.28-4.42-1.17l-30.01,52.61c-.42.74-1.2,1.19-2.05,1.19h-9.41c-.85,0-1.63-.46-2.05-1.19l-30.01-52.61c-1.2-2.11-4.42-1.25-4.42,1.17v63.13c0,1.31-1.06,2.36-2.36,2.36h-11.95c-1.31,0-2.36-1.06-2.36-2.36V48.74c0-1.31,1.06-2.36,2.36-2.36h-.01Z"/>
      <path class="st13" d="M311.37,45.94h15.03c.63,0,1.15.51,1.15,1.15v84.58c0,.41-.22.79-.57.99l-15.03,8.67c-.77.44-1.72-.11-1.72-.99V47.09c0-.63.51-1.15,1.15-1.15h0Z"/>
      <path class="st13" d="M348.25,46.38h15.35c.37,0,.71.16.96.43l58.75,66.79c.78.88,2.23.33,2.23-.84v-55.66c0-.45.24-.86.62-1.09l14.26-8.48c.85-.5,1.92.11,1.92,1.09v92.88c0,.7-.57,1.27-1.27,1.27h-13.28c-.37,0-.72-.16-.96-.43l-60.81-69.43c-.77-.88-2.23-.34-2.23.84v67.75c0,.7-.57,1.27-1.27,1.27h-14.26c-.7,0-1.27-.57-1.27-1.27V47.65c0-.7.57-1.27,1.27-1.27h-.01Z"/>
      <path class="st13" d="M703.29,88.85v45.44c0,.4-.24.78-.6.94-13.7,6.28-28.29,9.42-43.75,9.42-18.53,0-33.19-4.5-43.96-13.51-10.73-9.01-16.1-21.34-16.1-36.98s5.37-27.69,16.1-36.53c10.69-8.83,25.58-13.25,44.67-13.25,13.36,0,27.27,2.66,41.74,7.97.54.2.82.82.6,1.36l-5.28,13.14c-.22.55-.85.79-1.39.54-11.37-5.33-23.09-8-35.16-8-13.53,0-24.18,3.08-31.94,9.25-7.76,6.16-11.64,14.63-11.64,25.41s3.88,19.44,11.64,25.73c7.89,6.25,18.4,9.37,31.55,9.37,8.72,0,17.3-1.39,25.73-4.16.42-.14.71-.54.71-.98v-20.34c0-.57-.46-1.03-1.03-1.03h-30.56c-1.8,0-3.02-1.83-2.33-3.49l4.43-10.68c.16-.38.53-.63.95-.63h44.58c.57,0,1.03.46,1.03,1.03v-.02Z"/>
      <path class="st13" d="M819.94,46.38h13.34c1.07,0,2.09.46,2.79,1.26l60.24,68.5V48.51c0-1.18.96-2.13,2.13-2.13h12.4c1.25,0,2.27,1.02,2.27,2.27v91.41c0,1.5-1.22,2.71-2.71,2.71h-10.63c-1.13,0-2.21-.49-2.95-1.34l-62.25-71.07v60.35c0,1.28-.67,2.46-1.77,3.12l-13.26,7.89c-.78.47-1.78-.1-1.78-1.01V48.55c0-1.2.97-2.17,2.17-2.17h.01Z"/>
    </g>
    <path class="st13" d="M548.03,59.76c-9.44-8.92-21.7-13.38-36.79-13.38h-20.72c-1.91,0-3.05,2.12-2,3.72l6.83,10.33c.44.67,1.19,1.08,2,1.08h12.6c10.43,0,18.86,3.08,25.28,9.25,6.51,6.12,9.76,14.12,9.76,23.99s-3.21,17.76-9.63,23.79c-6.38,6.12-14.72,9.18-25.02,9.18h-28.77c-1.32,0-2.4-1.07-2.4-2.4v-60.22h-.05v-16.32c0-1.32-1.07-2.4-2.4-2.4h-12.48c-1.32,0-2.4,1.07-2.4,2.4v91.6c0,1.32,1.07,2.4,2.4,2.4h47.39c15.04,0,27.17-4.42,36.4-13.25,9.35-8.84,14.03-20.43,14.03-34.78s-4.68-26.14-14.03-34.98h0Z"/>
  </g>
  <g>
    <path class="st13" d="M800.26,127.71h-45.2c-1.91,0-3.78.52-5.42,1.5l-22.56,13.56h64.79c1.46,0,2.82-.73,3.63-1.95l6.53-9.83c.93-1.41-.07-3.28-1.76-3.28h-.01Z"/>
    <path class="st13" d="M720.94,142.78h1.32s14.97-15.79,14.97-16.09v-24.06c0-.57.46-1.03,1.03-1.03h49.51c1.66,0,3.15-1,3.79-2.53l3.92-9.48c.53-1.27-.41-2.67-1.78-2.67h-55.43c-.57,0-1.03-.46-1.03-1.03v-23.35c0-.57.46-1.03,1.03-1.03h50.06c1.38,0,2.67-.69,3.43-1.84l7.73-11.69c.45-.68-.04-1.6-.86-1.6h-77.68c-.57,0-1.03.46-1.03,1.03v94.34c0,.57.46,1.03,1.03,1.03h0Z"/>
  </g>
</svg>